<svg width="34" height="35" viewBox="0 0 34 35" fill="none" xmlns="http://www.w3.org/2000/svg">
<path fill-rule="evenodd" clip-rule="evenodd" d="M27.4856 11.0693C28.9756 11.0693 30.3186 10.173 30.8876 8.79907C31.4566 7.4251 31.1393 5.84437 30.084 4.79494C29.0286 3.74551 27.4434 3.43437 26.0683 4.00679C24.6932 4.57921 23.7996 5.92229 23.8047 7.40894C23.8116 9.4325 25.4576 11.0693 27.4856 11.0693ZM27.4856 5.82237C28.3638 5.82237 29.0757 6.5327 29.0757 7.40893C29.0757 8.28517 28.3638 8.9955 27.4856 8.9955C26.6075 8.9955 25.8956 8.28517 25.8956 7.40893C25.8956 6.5327 26.6075 5.82237 27.4856 5.82237ZM4.92422 23.5494C4.92422 27.6969 7.21542 29.9706 11.3596 29.9706C11.9376 29.9773 12.4045 30.4432 12.4113 31.02C12.4045 31.5946 11.9356 32.0569 11.3596 32.0568C6.10112 32.0568 2.83334 28.7963 2.83334 23.5494V13.3429C2.83334 8.08354 6.10112 4.82297 11.3596 4.82297H20.5745C21.1504 4.82981 21.6137 5.29763 21.6137 5.87234C21.6137 6.14952 21.5025 6.41517 21.3049 6.60999C21.1073 6.8048 20.8397 6.91257 20.562 6.90923H11.3596C7.21542 6.90923 4.92422 9.19538 4.92422 13.3429V23.5494ZM19.648 20.826C19.4726 21.042 19.2224 21.1847 18.9469 21.2258C18.6726 21.2536 18.3983 21.1728 18.1831 21.0009L14.3394 17.9902L10.8838 22.475C10.7191 22.6987 10.4713 22.8471 10.1959 22.887C9.92061 22.9269 9.64074 22.855 9.41898 22.6874C8.9664 22.3334 8.88274 21.6823 9.23117 21.2258L13.3253 15.9039C13.4961 15.6833 13.7478 15.5395 14.025 15.5043C14.3022 15.4692 14.582 15.5455 14.8027 15.7165L18.6464 18.7272L22.0268 14.4173C22.3979 14.0653 22.9706 14.0354 23.3765 14.3469C23.7823 14.6584 23.9003 15.2184 23.6545 15.6665L19.648 20.826ZM29.1258 13.3429C28.5519 13.3429 28.0866 13.8072 28.0866 14.3798V23.5494C28.0491 27.6969 25.7579 29.9706 21.6137 29.9706H17.4319C16.8539 29.9773 16.387 30.4432 16.3802 31.02C16.3871 31.5946 16.8559 32.0569 17.4319 32.0568H21.6137C26.8722 32.0568 30.1525 28.7963 30.1525 23.5494V14.3798C30.1525 13.812 29.6948 13.3498 29.1258 13.3429Z" fill="#F97316"/>
</svg>
