<svg width="19" height="23" viewBox="0 0 19 23" fill="none" xmlns="http://www.w3.org/2000/svg">
<path d="M15.5273 11.8848C15.5273 11.9824 15.3809 14.8633 18.5547 16.377C17.9688 18.1836 15.918 22.1875 13.5254 22.1875C12.1582 22.1875 11.377 21.3086 9.81445 21.3086C8.20312 21.3086 7.32422 22.1875 6.10352 22.1875C3.75977 22.2852 1.51367 17.8906 0.878906 16.084C0.390625 14.7168 0.195312 13.3984 0.195312 12.1289C0.195312 7.7832 3.07617 5.68359 5.81055 5.63477C7.12891 5.63477 8.78906 6.5625 9.52148 6.5625C10.2051 6.5625 12.1094 5.43945 13.8672 5.58594C15.6738 5.73242 17.041 6.41602 17.9688 7.73438C16.3574 8.75977 15.5273 10.0781 15.5273 11.8848ZM12.793 3.87695C11.8164 5 10.6445 5.63477 9.375 5.53711C9.27734 4.21875 9.76562 2.99805 10.6445 2.02148C11.4258 1.14258 12.793 0.410156 13.9648 0.3125C13.9648 0.849609 14.1113 2.31445 12.793 3.87695Z" fill="white"/>
</svg>
