<svg width="19" height="23" viewBox="0 0 19 23" fill="none" xmlns="http://www.w3.org/2000/svg">
<path d="M15.5273 12.2598C15.5273 12.3574 15.3809 15.2383 18.5547 16.752C17.9688 18.5586 15.918 22.5625 13.5254 22.5625C12.1582 22.5625 11.377 21.6836 9.81445 21.6836C8.20312 21.6836 7.32422 22.5625 6.10352 22.5625C3.75977 22.6602 1.51367 18.2656 0.878906 16.459C0.390625 15.0918 0.195312 13.7734 0.195312 12.5039C0.195312 8.1582 3.07617 6.05859 5.81055 6.00977C7.12891 6.00977 8.78906 6.9375 9.52148 6.9375C10.2051 6.9375 12.1094 5.81445 13.8672 5.96094C15.6738 6.10742 17.041 6.79102 17.9688 8.10938C16.3574 9.13477 15.5273 10.4531 15.5273 12.2598ZM12.793 4.25195C11.8164 5.375 10.6445 6.00977 9.375 5.91211C9.27734 4.59375 9.76562 3.37305 10.6445 2.39648C11.4258 1.51758 12.793 0.785156 13.9648 0.6875C13.9648 1.22461 14.1113 2.68945 12.793 4.25195Z" fill="black"/>
</svg>
