<svg width="14" height="15" viewBox="0 0 14 15" fill="none" xmlns="http://www.w3.org/2000/svg">
<path d="M13.611 0.199951H5.05539C4.84043 0.199951 4.66649 0.373894 4.66649 0.588852C4.66649 0.80381 4.84043 0.977753 5.05539 0.977753H12.6722L0.113758 13.5362C-0.0381635 13.6881 -0.0381635 13.9342 0.113758 14.0861C0.189701 14.162 0.289232 14.2 0.388727 14.2C0.488222 14.2 0.587717 14.162 0.663696 14.0861L13.2221 1.52765V9.14442C13.2221 9.35938 13.396 9.53332 13.611 9.53332C13.826 9.53332 13.9999 9.35938 13.9999 9.14442V0.588852C13.9999 0.373894 13.8259 0.199951 13.611 0.199951Z" fill="black"/>
</svg>
