<svg width="34" height="35" viewBox="0 0 34 35" fill="none" xmlns="http://www.w3.org/2000/svg">
<path fill-rule="evenodd" clip-rule="evenodd" d="M30.4459 8.60123V12.6559C30.4592 13.7584 30.0429 14.8211 29.2887 15.6102C28.5344 16.3993 27.5039 16.8502 26.424 16.8637H24.7753C24.2167 16.8026 23.7931 16.3214 23.7931 15.748C23.7931 15.1745 24.2167 14.6933 24.7753 14.6323H26.374C26.8797 14.6289 27.3632 14.4198 27.7173 14.0511C28.0714 13.6825 28.2667 13.1849 28.2601 12.6687V8.60123C28.2466 7.54363 27.41 6.68962 26.374 6.67588H22.3896C21.348 6.67588 20.5036 7.53789 20.5036 8.60123V14.6833C20.4832 15.3 19.9839 15.7871 19.3794 15.7799C19.089 15.7732 18.8132 15.6481 18.6137 15.4325C18.4143 15.2169 18.3077 14.9287 18.3177 14.6323V8.60123C18.3144 7.49659 18.742 6.43604 19.5059 5.65374C20.2699 4.87145 21.3075 4.43176 22.3896 4.43176H26.374C28.6054 4.48585 30.3997 6.32323 30.4459 8.60123ZM11.6104 4.43176H7.62603C5.37598 4.44568 3.55532 6.30429 3.54169 8.60123V12.6687C3.55538 14.9635 5.378 16.8185 7.62603 16.8254H11.6104C12.6925 16.8288 13.7314 16.3924 14.4978 15.6125C15.2641 14.8326 15.6948 13.7733 15.6948 12.6687V8.60123C15.6879 6.3014 13.8633 4.43876 11.6104 4.43176ZM13.4965 12.6687C13.5031 13.1849 13.3078 13.6825 12.9537 14.0511C12.5997 14.4198 12.1162 14.6289 11.6104 14.6323H7.62603C7.11279 14.6428 6.61753 14.4393 6.25454 14.0688C5.89156 13.6982 5.69221 13.1926 5.70251 12.6687V8.60123C5.70241 8.0839 5.90626 7.58829 6.2681 7.2261C6.62995 6.8639 7.11936 6.6656 7.62603 6.67588H11.6104C12.6492 6.68283 13.4897 7.54078 13.4965 8.60123V12.6687ZM22.3896 18.9548H26.374C28.622 18.9617 30.4447 20.8166 30.4584 23.1115V27.179C30.4447 29.4759 28.6241 31.3345 26.374 31.3484H22.3896C20.1416 31.3344 18.3246 29.4738 18.3177 27.179V23.1115C18.3177 20.8158 20.1408 18.9548 22.3896 18.9548ZM27.7113 28.5442C28.0658 28.1823 28.2634 27.6906 28.2601 27.179V23.1115C28.2601 22.6009 28.0613 22.1111 27.7076 21.7501C27.3539 21.389 26.8742 21.1861 26.374 21.1861H22.3896C21.348 21.1861 20.5036 22.0482 20.5036 23.1115V27.179C20.5002 27.6906 20.6978 28.1823 21.0523 28.5442C21.4067 28.906 21.8884 29.1077 22.3896 29.1043H26.374C26.8752 29.1077 27.3569 28.906 27.7113 28.5442ZM3.54169 27.1662V23.1115C3.54168 22.0069 3.97239 20.9477 4.73872 20.1678C5.50504 19.3879 6.54394 18.9514 7.62603 18.9548H9.26226C9.68061 18.9091 10.0878 19.1112 10.311 19.4753C10.5342 19.8394 10.5342 20.3016 10.311 20.6657C10.0878 21.0298 9.68061 21.2319 9.26226 21.1862H7.62603C6.58235 21.1861 5.73436 22.0461 5.7275 23.1115V27.128C5.75403 28.1848 6.5906 29.0332 7.62603 29.0533H11.6354C12.1378 29.0567 12.6207 28.8554 12.9771 28.4939C13.3335 28.1325 13.534 27.6408 13.534 27.128V21.0969C13.4525 20.6465 13.6473 20.1908 14.0262 19.9455C14.4052 19.7003 14.892 19.7147 15.2563 19.982C15.6207 20.2494 15.7892 20.7159 15.6823 21.1607V27.1662C15.6823 29.469 13.8537 31.3357 11.598 31.3357H7.62603C5.38981 31.2883 3.58808 29.4491 3.54169 27.1662Z" fill="#F97316"/>
</svg>
