<svg width="14" height="14" viewBox="0 0 14 14" fill="none" xmlns="http://www.w3.org/2000/svg">
<path d="M7.18081 3.63086C9.02652 3.63086 10.55 5.1543 10.55 7C10.55 8.875 9.02652 10.3691 7.18081 10.3691C5.30581 10.3691 3.81167 8.875 3.81167 7C3.81167 5.1543 5.30581 3.63086 7.18081 3.63086ZM7.18081 9.19727C8.38199 9.19727 9.34878 8.23047 9.34878 7C9.34878 5.79883 8.38199 4.83203 7.18081 4.83203C5.95035 4.83203 4.98355 5.79883 4.98355 7C4.98355 8.23047 5.97964 9.19727 7.18081 9.19727ZM11.4582 3.51367C11.4582 3.95312 11.1066 4.30469 10.6671 4.30469C10.2277 4.30469 9.87613 3.95312 9.87613 3.51367C9.87613 3.07422 10.2277 2.72266 10.6671 2.72266C11.1066 2.72266 11.4582 3.07422 11.4582 3.51367ZM13.6847 4.30469C13.7433 5.38867 13.7433 8.64062 13.6847 9.72461C13.6261 10.7793 13.3918 11.6875 12.63 12.4785C11.8683 13.2402 10.9308 13.4746 9.87613 13.5332C8.79214 13.5918 5.54019 13.5918 4.45621 13.5332C3.40152 13.4746 2.49331 13.2402 1.7023 12.4785C0.94058 11.6875 0.706205 10.7793 0.647612 9.72461C0.589018 8.64062 0.589018 5.38867 0.647612 4.30469C0.706205 3.25 0.94058 2.3125 1.7023 1.55078C2.49331 0.789062 3.40152 0.554688 4.45621 0.496094C5.54019 0.4375 8.79214 0.4375 9.87613 0.496094C10.9308 0.554688 11.8683 0.789062 12.63 1.55078C13.3918 2.3125 13.6261 3.25 13.6847 4.30469ZM12.2785 10.8672C12.63 10.0176 12.5421 7.9668 12.5421 7C12.5421 6.0625 12.63 4.01172 12.2785 3.13281C12.0441 2.57617 11.6046 2.10742 11.048 1.90234C10.1691 1.55078 8.11831 1.63867 7.18081 1.63867C6.21402 1.63867 4.16324 1.55078 3.31363 1.90234C2.72769 2.13672 2.28824 2.57617 2.05386 3.13281C1.7023 4.01172 1.79019 6.0625 1.79019 7C1.79019 7.9668 1.7023 10.0176 2.05386 10.8672C2.28824 11.4531 2.72769 11.8926 3.31363 12.127C4.16324 12.4785 6.21402 12.3906 7.18081 12.3906C8.11831 12.3906 10.1691 12.4785 11.048 12.127C11.6046 11.8926 12.0734 11.4531 12.2785 10.8672Z" fill="white"/>
</svg>
