<svg width="14" height="14" viewBox="0 0 14 14" fill="none" xmlns="http://www.w3.org/2000/svg">
<path d="M3.548 13.625H0.823393V4.86523H3.548V13.625ZM2.17105 3.69336C1.32144 3.69336 0.618315 2.96094 0.618315 2.08203C0.618315 1.23242 1.32144 0.529297 2.17105 0.529297C3.04996 0.529297 3.75308 1.23242 3.75308 2.08203C3.75308 2.96094 3.04996 3.69336 2.17105 3.69336ZM13.714 13.625H11.0187V9.37695C11.0187 8.35156 10.9894 7.0625 9.58316 7.0625C8.17691 7.0625 7.97183 8.14648 7.97183 9.28906V13.625H5.24722V4.86523H7.85464V6.06641H7.88394C8.2648 5.39258 9.14371 4.66016 10.4621 4.66016C13.216 4.66016 13.7433 6.47656 13.7433 8.82031V13.625H13.714Z" fill="white"/>
</svg>
