<svg width="25" height="30" viewBox="0 0 25 30" fill="none" xmlns="http://www.w3.org/2000/svg">
<path fill-rule="evenodd" clip-rule="evenodd" d="M13.5385 0.865882L22.9488 4.07738C24.0013 4.43721 24.7084 5.40619 24.7084 6.49132V15.8992C24.7084 18.7509 23.6485 21.5119 21.7256 23.6666C20.8451 24.654 19.7153 25.5025 18.272 26.2618L13.1857 28.9322C13.0268 29.0143 12.8518 29.0568 12.6754 29.0568C12.5005 29.0568 12.3256 29.0143 12.1667 28.9322L7.07008 26.2604C5.62392 25.4997 4.49264 24.6511 3.61357 23.668C1.68778 21.5104 0.625021 18.748 0.625021 15.8935C0.625021 15.3184 1.1061 14.8509 1.69798 14.8509C2.28986 14.8509 2.77095 15.3184 2.77095 15.8935C2.77095 18.2479 3.64564 20.5231 5.23322 22.3023C5.94027 23.0942 6.87473 23.7884 8.0891 24.4259L12.6754 26.8299L17.2516 24.4273C18.463 23.7912 19.3975 23.0971 20.106 22.3023C21.6906 20.5245 22.5639 18.2522 22.5639 15.8992V6.49132C22.5639 6.29016 22.4327 6.11167 22.2388 6.04509L12.8285 2.83358C12.725 2.79817 12.6098 2.79817 12.5049 2.83358L3.09604 6.04509C2.90215 6.11167 2.77095 6.29016 2.77095 6.49132V9.18292C2.77095 9.75949 2.28986 10.227 1.69798 10.227C1.1061 10.227 0.625021 9.75949 0.625021 9.18292V6.49132C0.625021 5.40619 1.33353 4.43721 2.38608 4.07738L11.7949 0.865882C12.3576 0.676054 12.9772 0.676054 13.5385 0.865882ZM11.6555 18.1733C11.3698 18.1733 11.0986 18.0628 10.8975 17.8673L8.19174 15.238C7.77334 14.83 7.77334 14.1727 8.19174 13.7647C8.61159 13.3567 9.28948 13.3567 9.70788 13.7647L11.6555 15.6559L16.4693 10.9796C16.8877 10.5731 17.567 10.5731 17.9854 10.9796C18.4038 11.3862 18.4038 12.0464 17.9854 12.4529L12.4136 17.8673C12.2124 18.0628 11.9398 18.1733 11.6555 18.1733Z" fill="#F97316"/>
</svg>
