<svg width="16" height="14" viewBox="0 0 16 14" fill="none" xmlns="http://www.w3.org/2000/svg">
<path d="M14.1348 3.95312C14.1348 4.09961 14.1348 4.2168 14.1348 4.36328C14.1348 8.43555 11.0586 13.0938 5.4043 13.0938C3.64648 13.0938 2.03516 12.5957 0.6875 11.7168C0.921875 11.7461 1.15625 11.7754 1.41992 11.7754C2.85547 11.7754 4.17383 11.2773 5.22852 10.457C3.88086 10.4277 2.73828 9.54883 2.35742 8.31836C2.5625 8.34766 2.73828 8.37695 2.94336 8.37695C3.20703 8.37695 3.5 8.31836 3.73438 8.25977C2.32812 7.9668 1.27344 6.73633 1.27344 5.24219V5.21289C1.68359 5.44727 2.18164 5.56445 2.67969 5.59375C1.83008 5.03711 1.30273 4.09961 1.30273 3.04492C1.30273 2.45898 1.44922 1.93164 1.71289 1.49219C3.23633 3.33789 5.52148 4.56836 8.07031 4.71484C8.01172 4.48047 7.98242 4.24609 7.98242 4.01172C7.98242 2.3125 9.35938 0.935547 11.0586 0.935547C11.9375 0.935547 12.7285 1.28711 13.3145 1.90234C13.9883 1.75586 14.6621 1.49219 15.248 1.14062C15.0137 1.87305 14.5449 2.45898 13.9004 2.83984C14.5156 2.78125 15.1309 2.60547 15.6582 2.37109C15.248 2.98633 14.7207 3.51367 14.1348 3.95312Z" fill="white"/>
</svg>
