<svg width="29" height="28" viewBox="0 0 29 28" fill="none" xmlns="http://www.w3.org/2000/svg">
<path fill-rule="evenodd" clip-rule="evenodd" d="M8.36195 0.431763H20.3035C24.823 0.431763 28.5 4.1927 28.5 8.81689V18.9633C28.5 23.5875 24.823 27.3484 20.3035 27.3484C19.7822 27.3484 19.3591 26.9155 19.3591 26.3821C19.3591 25.8487 19.7822 25.4158 20.3035 25.4158C23.7816 25.4158 26.6111 22.522 26.6111 18.9633V10.8655H21.9594C20.4319 10.8668 19.1865 12.1398 19.1853 13.7039C19.1865 15.2681 20.4319 16.541 21.9594 16.5423H23.8924C24.4137 16.5423 24.8368 16.9753 24.8368 17.5087C24.8368 18.0421 24.4137 18.475 23.8924 18.475H21.9594C19.3893 18.4737 17.2976 16.3336 17.2964 13.7039C17.2976 11.0742 19.3893 8.93414 21.9594 8.93285H26.6111V8.81689C26.6111 5.25824 23.7816 2.36441 20.3035 2.36441H8.36195C5.55884 2.36441 3.20654 4.25583 2.38676 6.84687H14.8358C15.3571 6.84687 15.7802 7.27979 15.7802 7.8132C15.7802 8.3479 15.3571 8.77952 14.8358 8.77952H2.05935C2.05935 8.78597 2.05841 8.79209 2.05746 8.79821C2.05652 8.80433 2.05558 8.81045 2.05558 8.81689V18.9633C2.05558 22.522 4.88387 25.4158 8.36195 25.4158H14.3699C14.8912 25.4158 15.3143 25.8487 15.3143 26.3821C15.3143 26.9155 14.8912 27.3484 14.3699 27.3484H8.36195C3.84246 27.3484 0.166687 23.5875 0.166687 18.9633V8.81689C0.166687 4.1927 3.84246 0.431763 8.36195 0.431763ZM21.2197 13.6168C21.2197 13.0834 21.6428 12.6505 22.1642 12.6505H22.5936C23.1149 12.6505 23.538 13.0834 23.538 13.6168C23.538 14.1502 23.1149 14.5831 22.5936 14.5831H22.1642C21.6428 14.5831 21.2197 14.1502 21.2197 13.6168Z" fill="#F97316"/>
</svg>
