<?xml version="1.0" standalone="no"?>
<!DOCTYPE svg PUBLIC "-//W3C//DTD SVG 20010904//EN"
 "http://www.w3.org/TR/2001/REC-SVG-20010904/DTD/svg10.dtd">
<svg version="1.0" xmlns="http://www.w3.org/2000/svg"
 width="1215.000000pt" height="567.000000pt" viewBox="0 0 1215.000000 567.000000"
 preserveAspectRatio="xMidYMid meet">

<g transform="translate(0.000000,567.000000) scale(0.100000,-0.100000)"
fill="#000000" stroke="none">
<path d="M9578 5102 c41 -6 23 -17 -31 -18 -28 -1 -72 -9 -97 -18 -25 -10 -65
-23 -90 -31 -79 -24 -155 -55 -158 -65 -2 -6 -10 -10 -19 -10 -8 0 -21 -6 -28
-12 -35 -31 -45 -38 -70 -44 -15 -4 -29 -13 -32 -20 -3 -8 -11 -14 -19 -14 -8
0 -14 -4 -14 -9 0 -5 -11 -19 -25 -32 -13 -13 -25 -32 -25 -41 0 -10 -4 -18
-8 -18 -5 0 -17 -19 -27 -42 -9 -24 -21 -51 -26 -61 -5 -10 -7 -22 -4 -27 3
-4 0 -10 -6 -12 -7 -2 -12 -39 -13 -102 -1 -83 2 -99 17 -107 9 -6 17 -19 17
-29 0 -40 45 -110 72 -110 4 0 8 -6 8 -14 0 -7 16 -26 35 -41 32 -24 41 -26
86 -20 56 8 93 37 101 79 8 42 -20 59 -91 53 -48 -3 -61 -2 -61 9 0 8 -9 24
-20 37 -44 49 -50 58 -50 72 0 8 -4 15 -10 15 -6 0 -10 33 -10 79 0 61 3 80
15 85 11 4 15 -1 15 -19 0 -36 26 -31 34 7 3 17 22 46 41 65 27 26 35 42 35
68 0 29 4 35 20 35 12 0 32 7 45 16 17 11 36 14 59 10 26 -5 35 -3 40 10 9 23
8 24 -18 24 -14 0 -27 4 -31 10 -3 5 -13 7 -23 4 -14 -5 -15 -4 -2 5 8 6 26 9
40 6 18 -4 29 0 40 15 15 21 46 27 52 10 2 -5 13 -7 26 -4 16 5 20 10 12 19
-8 9 2 14 41 18 31 4 56 13 64 23 6 9 17 14 23 10 7 -4 12 -2 12 3 0 17 40 13
46 -4 9 -21 34 -19 34 3 0 17 12 20 123 26 86 4 156 2 237 -9 62 -8 133 -15
157 -15 24 0 43 -4 43 -9 0 -5 17 -12 37 -16 20 -4 48 -15 61 -26 14 -10 31
-19 39 -19 44 0 143 -80 143 -116 0 -12 6 -27 14 -33 15 -13 10 -51 -8 -63 -6
-4 -7 -11 -2 -15 5 -4 11 -2 13 5 11 28 22 8 28 -52 7 -67 -4 -106 -30 -106
-25 0 -17 -30 8 -31 21 -1 21 -1 -3 -9 -24 -8 -24 -8 -2 -9 29 -1 31 -41 2
-48 -11 -3 -20 -9 -20 -13 0 -5 9 -12 20 -15 20 -6 29 -45 10 -45 -5 0 -10
-10 -11 -22 -1 -22 -1 -22 -10 2 -6 18 -7 14 -3 -17 6 -43 -20 -133 -37 -133
-5 0 -9 -7 -9 -15 0 -8 -7 -15 -15 -15 -8 0 -14 -3 -14 -7 4 -23 -3 -33 -22
-33 -12 0 -23 -8 -26 -20 -3 -11 -9 -20 -13 -20 -4 0 -12 -11 -18 -25 -6 -14
-18 -25 -26 -25 -8 0 -19 -6 -23 -13 -10 -16 -103 -43 -193 -56 -68 -9 -197
-2 -365 22 l-90 12 2 35 c1 19 11 124 23 233 11 109 18 202 15 208 -9 14 -85
11 -85 -3 0 -7 -20 -32 -45 -56 -57 -54 -77 -94 -78 -152 -1 -56 7 -70 39 -70
22 0 24 -3 24 -54 0 -34 -5 -60 -14 -69 -12 -11 -12 -22 -4 -57 8 -30 8 -44 0
-49 -6 -3 -14 -45 -18 -92 l-7 -86 -41 9 c-42 8 -140 22 -281 38 -44 5 -116
14 -160 20 -44 6 -111 15 -150 19 -38 5 -117 16 -175 24 -58 8 -160 18 -228
22 -68 4 -138 11 -155 16 -17 5 -104 14 -192 19 -88 6 -171 15 -185 20 -14 6
-65 12 -115 15 -90 4 -170 11 -450 39 -82 8 -181 15 -220 16 -38 0 -88 5 -110
10 -22 5 -179 15 -350 21 -170 7 -313 16 -316 21 -7 11 -629 23 -1076 21
l-363 -1 0 42 c0 24 2 45 5 47 2 3 7 74 9 159 3 93 10 156 16 158 5 2 10 10
10 18 0 8 13 17 31 21 23 4 29 10 27 27 -2 14 -9 20 -20 18 -12 -2 -18 4 -18
18 0 11 5 20 10 20 6 0 10 8 10 18 0 10 5 23 10 28 12 12 -2 44 -35 82 -20 22
-75 31 -75 12 0 -5 -9 -10 -20 -10 -13 0 -20 7 -20 19 0 20 -18 31 -54 31 -17
0 -27 -10 -38 -37 -9 -21 -24 -58 -34 -83 -11 -24 -18 -48 -17 -52 2 -5 -2 -8
-7 -8 -6 0 -10 -11 -10 -24 0 -13 -5 -26 -12 -28 -6 -2 -11 -18 -10 -35 0 -19
-5 -34 -14 -37 -8 -3 -14 -12 -14 -20 0 -9 -9 -20 -19 -26 -11 -5 -22 -23 -26
-39 -3 -16 -15 -37 -25 -46 -10 -9 -21 -38 -25 -66 -6 -40 -12 -52 -30 -59
-33 -13 -44 -73 -21 -113 9 -16 16 -33 16 -38 0 -5 -73 -9 -167 -9 -93 0 -188
-5 -213 -11 -34 -8 -50 -7 -69 3 -19 10 -25 10 -28 1 -4 -10 -71 -13 -294 -13
l-289 0 0 -25 c0 -16 -6 -25 -16 -25 -12 0 -15 -6 -10 -22 3 -13 6 -31 6 -40
0 -13 8 -18 29 -18 57 0 91 12 91 31 0 15 7 19 38 19 33 -1 35 -2 20 -14 -31
-23 -22 -44 19 -44 21 0 39 -5 41 -11 2 -6 17 -11 33 -11 24 0 29 4 29 25 0
24 12 30 47 26 20 -3 15 17 -4 22 -10 2 -1 2 21 -1 27 -3 36 -1 32 7 -7 11 43
13 484 15 l205 1 -3 -85 c-1 -47 -7 -86 -12 -88 -6 -2 -10 -18 -10 -35 -1 -18
-8 -59 -17 -92 -8 -33 -16 -72 -16 -87 0 -16 -3 -28 -7 -28 -5 0 -11 -36 -15
-80 -4 -44 -10 -80 -14 -80 -7 0 -31 -95 -31 -124 0 -12 -5 -16 -15 -12 -8 3
-21 8 -28 11 -7 3 -25 -3 -39 -14 -22 -18 -27 -31 -33 -96 -4 -47 -2 -101 5
-143 14 -78 -2 -331 -21 -343 -8 -4 -7 -8 2 -12 10 -4 6 -8 -9 -13 -14 -4 -19
-10 -13 -14 15 -9 -6 -160 -24 -174 -10 -8 -15 -42 -18 -111 -2 -57 -11 -123
-21 -155 -10 -30 -20 -66 -23 -80 -2 -14 -7 -32 -11 -40 -3 -8 -7 -22 -8 -30
-11 -63 -38 -171 -50 -199 -8 -18 -14 -53 -14 -76 0 -24 -6 -65 -14 -91 -23
-77 -35 -147 -56 -317 -11 -87 -22 -162 -25 -167 -3 -5 -10 -44 -15 -86 -5
-45 -14 -80 -22 -85 -7 -5 -43 -9 -80 -9 -39 0 -68 -4 -68 -10 0 -5 -13 -10
-29 -10 -15 0 -45 -11 -65 -25 -29 -20 -44 -24 -79 -19 -39 5 -43 3 -54 -22
-21 -46 -16 -69 25 -100 29 -23 44 -29 67 -24 25 5 30 10 28 33 -1 23 3 27 35
32 20 3 57 10 82 16 25 6 51 12 58 12 6 0 12 4 12 9 0 4 14 8 30 8 25 0 30 -4
30 -24 0 -14 -4 -28 -10 -31 -5 -3 -10 -19 -10 -35 0 -16 -5 -32 -11 -35 -6
-4 -8 -13 -5 -20 3 -8 1 -15 -5 -17 -5 -2 -12 -28 -16 -58 -3 -30 -11 -60 -17
-68 -21 -26 -43 -47 -68 -65 -15 -10 -28 -27 -31 -38 -11 -41 86 -15 148 40
38 34 85 98 85 116 0 13 6 35 14 50 8 15 12 33 10 40 -3 7 -1 16 5 20 6 3 11
23 11 45 0 25 5 40 16 44 9 4 14 13 10 21 -3 8 -1 15 4 15 6 0 10 9 10 20 0
15 7 20 28 20 15 0 32 4 37 8 14 11 98 30 172 37 39 4 64 12 67 21 4 10 24 14
71 14 37 0 65 4 65 10 0 6 21 10 47 10 l46 0 -7 -266 c-3 -147 -9 -300 -13
-340 -6 -69 -7 -74 -29 -74 -17 0 -24 -6 -24 -19 0 -11 6 -21 13 -23 8 -3 12
-33 13 -96 2 -129 0 -122 35 -122 38 0 65 30 74 83 4 22 12 37 21 37 23 0 35
47 30 117 -2 35 -6 66 -8 68 -2 2 -2 97 -1 212 1 114 2 261 3 325 l0 117 48 6
c92 12 102 16 102 36 0 11 7 19 16 19 10 0 14 -6 10 -15 -6 -18 1 -19 40 -5
16 5 61 15 99 20 139 21 190 30 218 36 32 8 35 -8 13 -71 -8 -22 -20 -73 -26
-112 -7 -40 -15 -73 -20 -73 -4 0 -11 -36 -15 -80 -4 -44 -10 -80 -15 -80 -4
0 -10 -30 -14 -66 -4 -37 -13 -82 -21 -100 -8 -19 -18 -67 -24 -106 -6 -40
-19 -91 -29 -113 -16 -33 -20 -63 -20 -177 l-1 -138 39 0 c37 0 40 2 50 40 5
22 15 58 20 80 6 22 8 45 5 50 -7 11 16 203 25 210 4 3 10 29 13 59 4 29 12
59 18 67 7 8 9 17 6 20 -2 3 1 29 9 57 8 29 14 67 14 85 0 17 4 32 9 32 8 0
13 30 27 150 3 30 8 62 11 70 3 8 5 25 4 37 -1 11 3 24 8 28 6 3 11 17 11 30
0 13 7 31 16 40 9 8 13 22 10 30 -3 9 -1 26 4 39 8 21 17 24 97 32 48 4 93 7
100 5 6 -1 14 3 18 9 3 5 25 10 48 10 23 0 74 7 112 16 41 8 147 17 255 20
169 5 270 18 270 35 0 8 14 11 205 39 197 30 275 36 275 19 0 -8 9 -4 23 9 16
15 36 22 63 22 21 0 70 7 109 15 38 8 87 15 107 15 20 0 67 7 105 16 42 10
106 15 168 14 55 -1 130 -2 168 -1 39 1 67 -3 67 -9 0 -5 -4 -10 -9 -10 -10 0
-63 -52 -101 -99 -14 -17 -30 -31 -37 -31 -6 0 -14 -13 -18 -30 -4 -16 -12
-33 -18 -37 -19 -13 -57 -71 -57 -88 0 -8 -9 -23 -20 -32 -11 -10 -20 -23 -20
-30 0 -7 -4 -13 -9 -13 -6 0 -13 -21 -17 -47 -9 -59 10 -136 42 -170 13 -14
21 -29 19 -34 -8 -12 78 -22 117 -14 29 7 61 22 155 73 13 7 29 22 36 33 6 10
15 19 20 19 13 0 102 93 126 133 12 20 26 37 30 37 3 0 12 12 18 27 6 16 20
44 31 63 47 85 62 119 62 141 0 12 7 30 16 40 9 10 18 36 21 58 3 23 10 41 14
41 5 0 9 7 9 16 0 20 24 44 44 44 9 0 16 5 16 10 0 6 9 10 20 10 11 0 20 6 20
13 0 9 3 8 9 -2 6 -10 25 -12 70 -9 49 3 61 1 61 -10 0 -27 234 2 271 34 10 9
41 14 87 14 62 0 71 -2 77 -20 7 -21 21 -27 27 -10 2 7 25 7 72 1 71 -10 126
-5 126 11 0 5 9 6 20 3 11 -3 20 -3 20 2 0 8 49 28 98 40 16 4 22 1 22 -11 0
-9 8 -16 20 -16 11 0 20 5 20 10 0 6 9 10 20 10 11 0 20 4 20 9 0 6 21 13 48
16 26 3 92 17 147 31 105 25 165 31 165 14 0 -5 20 -10 45 -10 38 0 45 3 45
20 0 14 7 20 23 20 12 0 56 7 97 16 41 8 100 20 130 26 30 5 73 13 95 18 22 5
68 14 103 21 34 6 65 16 68 20 3 5 16 9 30 9 13 0 32 4 42 9 37 19 122 33 136
22 8 -7 23 -8 46 -1 19 5 36 8 38 5 3 -3 11 0 18 6 8 6 29 11 48 12 37 1 35
-5 37 106 1 43 -3 66 -12 72 -11 6 -11 11 -2 20 6 6 9 18 6 25 -3 9 2 14 16
14 12 0 24 7 28 16 8 21 51 64 64 64 6 0 17 6 25 14 18 19 19 66 0 66 -8 0
-16 6 -19 13 -3 8 -18 11 -44 9 -34 -3 -41 -9 -58 -44 -11 -22 -33 -47 -50
-56 -16 -9 -31 -20 -33 -24 -2 -5 -13 -8 -23 -8 -13 0 -18 -4 -13 -12 4 -7 3
-8 -5 -4 -6 4 -17 3 -24 -2 -7 -5 -30 -13 -52 -17 -22 -4 -43 -12 -47 -18 -4
-7 -49 -11 -125 -11 -88 0 -101 -1 -53 -5 l65 -6 -75 -8 c-41 -4 -96 -10 -121
-13 -34 -4 -48 -2 -58 10 -15 18 -86 22 -96 6 -3 -5 -11 -10 -16 -10 -14 0 -1
42 17 56 7 6 19 41 26 77 7 37 16 67 20 67 5 0 8 5 8 12 0 6 10 22 22 35 12
12 23 35 24 49 2 14 5 28 7 31 15 15 252 22 697 22 278 0 549 3 603 7 95 7 97
6 97 -15 0 -14 6 -21 20 -21 13 0 20 -7 20 -20 0 -13 7 -20 20 -20 17 0 20 7
20 45 0 45 0 45 35 45 22 0 38 6 41 15 4 8 15 15 25 15 12 0 19 7 19 20 0 11
-4 20 -10 20 -5 0 -10 8 -10 18 0 16 -21 17 -293 17 -160 0 -263 -2 -227 -5
l65 -5 -97 -8 c-54 -4 -110 -4 -125 0 l-28 7 25 7 c20 6 17 7 -17 8 -36 1 -43
-2 -43 -18 0 -17 -14 -18 -287 -19 -159 0 -338 -3 -399 -7 l-112 -7 13 57 c8
31 11 63 8 71 -3 8 0 14 6 14 6 0 11 19 11 45 0 27 5 45 11 45 9 0 10 22 6 75
-6 63 -4 75 8 75 29 0 14 19 -20 26 -45 8 -85 -2 -85 -22 0 -9 -9 -18 -20 -21
-11 -3 -20 -11 -20 -18 0 -8 -9 -17 -20 -20 -11 -3 -20 -11 -20 -18 0 -6 -10
-22 -22 -35 l-23 -25 35 7 c19 3 30 3 23 -2 -8 -5 -11 -34 -10 -85 1 -59 -2
-80 -15 -89 -21 -17 -33 -68 -16 -69 44 -4 -85 -18 -170 -18 -57 -1 -123 -6
-148 -12 -25 -6 -47 -10 -49 -7 -2 2 2 22 10 43 8 22 14 64 15 93 l0 52 -40 2
c-22 0 -46 1 -52 2 -7 1 -13 -9 -13 -21 0 -11 -9 -29 -21 -40 -11 -10 -24 -31
-28 -48 -19 -84 -14 -81 -154 -94 -225 -21 -504 -42 -607 -45 -55 -2 -107 -6
-115 -9 -8 -3 -35 -11 -60 -19 -40 -12 -45 -16 -48 -46 -2 -18 1 -32 7 -32 6
0 11 -8 11 -19 0 -14 6 -17 25 -13 18 3 25 0 25 -11 0 -8 13 -17 31 -21 59
-11 87 -7 104 17 12 17 17 19 24 9 13 -22 81 -5 81 20 0 18 -6 20 -45 16 -24
-1 -41 0 -37 4 4 3 34 9 67 11 186 16 472 38 547 44 l88 6 -11 -32 c-6 -17
-16 -31 -21 -31 -6 0 -8 -9 -5 -20 3 -11 1 -20 -4 -20 -5 0 -9 -10 -9 -22 0
-13 -12 -50 -25 -83 -14 -33 -25 -68 -25 -77 0 -10 -7 -18 -16 -18 -10 0 -14
-6 -10 -15 3 -8 1 -15 -5 -15 -6 0 -7 -5 -3 -11 3 -6 2 -21 -4 -32 -22 -46
-52 -139 -52 -163 0 -13 -4 -32 -9 -42 -5 -9 -12 -24 -15 -33 -3 -13 -24 -18
-88 -24 -46 -4 -86 -12 -90 -19 -6 -8 -11 -7 -18 4 -7 11 -10 12 -10 2 0 -18
-40 -11 -52 8 -15 24 8 97 33 105 16 6 19 12 15 33 -5 18 -4 22 2 13 7 -9 11
-3 16 23 3 20 9 52 12 72 4 20 2 46 -4 57 -6 12 -13 34 -16 49 -7 33 -41 69
-79 86 -16 7 -72 12 -133 12 -84 0 -106 -3 -110 -15 -4 -8 -12 -15 -18 -15 -7
0 -35 -20 -62 -45 -27 -25 -55 -45 -64 -45 -18 -1 -52 -25 -44 -32 6 -7 -54
-127 -73 -146 -7 -7 -13 -25 -13 -40 0 -21 -10 -33 -42 -52 -22 -14 -52 -36
-65 -50 -20 -21 -23 -22 -23 -7 0 10 9 40 20 66 16 36 20 64 18 117 l-3 69
-33 3 c-25 3 -39 -2 -53 -19 -10 -12 -19 -27 -19 -34 0 -7 -6 -25 -14 -41 -8
-16 -17 -49 -21 -74 -4 -25 -18 -68 -31 -97 -13 -28 -24 -59 -24 -67 0 -10 -9
-16 -21 -16 -16 0 -19 4 -13 23 3 12 13 30 22 40 8 9 17 42 20 72 2 30 8 55
13 55 13 0 11 121 -2 159 -6 18 -24 38 -40 46 -32 17 -99 20 -99 5 0 -5 -11
-10 -25 -10 -27 0 -75 -19 -75 -30 0 -4 -12 -10 -27 -13 -26 -5 -63 -38 -128
-111 -24 -28 -65 -43 -65 -24 0 4 -7 8 -15 8 -8 0 -15 -5 -15 -11 0 -6 -11
-20 -25 -31 -14 -11 -25 -30 -25 -44 0 -13 -4 -24 -9 -24 -5 0 -20 -21 -32
-47 -23 -49 -87 -115 -101 -106 -5 2 -23 -5 -42 -16 -39 -24 -56 -27 -56 -7 0
8 -7 17 -16 20 -8 3 -12 11 -9 17 4 6 13 8 21 5 10 -4 14 2 14 19 0 13 5 27
10 30 6 3 10 39 10 78 0 60 -3 75 -20 90 -11 9 -26 17 -33 17 -21 0 -137 -43
-137 -52 0 -4 -6 -8 -14 -8 -7 0 -19 -7 -26 -15 -18 -21 -30 -19 -27 6 1 16
-6 24 -26 31 -38 14 -54 5 -73 -39 -9 -21 -20 -46 -25 -55 -5 -10 -9 -26 -9
-37 0 -10 -15 -34 -32 -52 -18 -19 -33 -38 -34 -44 -2 -46 -45 -105 -76 -105
-10 0 -18 -4 -18 -10 0 -11 -51 -13 -99 -4 -30 6 -31 8 -26 52 2 25 10 49 16
53 16 10 16 133 0 153 -8 9 -21 16 -31 16 -11 0 -20 10 -25 28 -12 49 -37 62
-115 62 -60 0 -82 -5 -145 -35 -41 -19 -75 -39 -75 -45 0 -5 -11 -12 -25 -16
-13 -3 -27 -13 -30 -22 -3 -10 -20 -33 -38 -52 -52 -57 -80 -101 -88 -139 -4
-20 -13 -56 -19 -81 -8 -31 -8 -46 -1 -48 19 -6 12 -30 -11 -36 -13 -3 -42 -6
-65 -6 -23 0 -80 -8 -125 -19 -46 -10 -101 -19 -123 -20 -22 -1 -56 -6 -75
-11 -49 -12 -140 -23 -140 -16 0 3 36 13 80 22 44 10 80 21 80 26 0 4 9 8 20
8 11 0 28 4 38 9 9 5 36 17 59 27 24 11 43 23 43 27 0 5 4 6 9 3 16 -10 41 5
41 24 0 19 19 30 51 30 10 0 19 4 19 10 0 5 23 33 50 61 28 28 50 55 50 60 0
15 43 59 58 59 10 0 13 9 10 35 -3 23 0 35 8 35 6 0 15 7 18 16 4 12 1 14 -14
9 -24 -8 -26 3 -3 20 20 15 23 31 24 168 1 68 -3 113 -10 120 -6 6 -11 20 -11
31 0 26 -30 106 -40 106 -4 0 -15 17 -24 38 -26 57 -180 151 -222 135 -8 -3
-14 0 -14 7 0 10 -28 11 -117 6 -147 -7 -146 -7 -158 -16 -5 -3 -36 -15 -67
-25 -32 -11 -58 -23 -58 -27 0 -4 -7 -8 -15 -8 -9 0 -18 -7 -21 -15 -4 -8 -11
-15 -18 -15 -16 0 -56 -45 -56 -63 0 -9 -8 -23 -17 -32 -18 -19 -35 -117 -26
-152 3 -13 13 -23 22 -23 9 0 22 -5 29 -12 7 -7 28 -11 47 -10 44 3 46 -15 3
-21 -23 -3 -18 -4 17 -5 57 -2 94 21 96 60 1 19 2 20 6 4 3 -11 11 -26 19 -34
8 -7 12 -23 9 -35 -12 -61 -25 -196 -19 -212 4 -9 2 -20 -5 -25 -7 -4 -15 -40
-18 -83 -4 -55 -10 -77 -19 -77 -11 0 -14 -19 -14 -80 0 -70 -2 -81 -21 -91
-15 -8 -24 -8 -32 0 -6 6 -24 11 -41 11 l-29 0 21 19 c37 32 23 51 -39 51 -26
0 -29 -4 -29 -30 0 -19 5 -30 14 -30 8 0 18 -5 22 -11 5 -9 -1 -10 -20 -5 -20
5 -26 3 -26 -9 0 -37 21 -54 80 -67 45 -9 60 -16 58 -28 -2 -9 -17 -16 -41
-18 -20 -2 -37 -7 -37 -13 0 -5 -15 -9 -32 -9 -18 1 -69 -6 -113 -14 -44 -8
-107 -20 -140 -26 -33 -6 -84 -15 -114 -21 -72 -15 -101 -18 -101 -10 -15 305
-15 476 0 646 5 55 14 201 19 325 11 222 11 225 36 247 14 12 25 27 25 33 0 5
9 10 20 10 11 0 20 7 20 16 0 8 5 12 10 9 6 -4 10 5 10 20 0 39 28 61 99 80
35 9 65 14 67 12 2 -2 -1 -19 -6 -38 -14 -49 -12 -83 6 -116 15 -25 24 -29 63
-31 51 -2 60 2 79 35 18 34 15 43 -18 43 -27 0 -30 3 -30 33 0 17 9 68 20 112
11 44 20 92 20 108 0 15 9 44 20 64 11 21 20 43 20 49 0 6 7 25 16 43 9 18 17
54 19 81 2 48 2 48 -31 55 -36 6 -54 -4 -67 -38 -4 -11 -16 -21 -27 -24 -11
-3 -22 -16 -25 -29 -3 -13 -8 -36 -12 -51 -3 -16 -5 -33 -4 -39 1 -7 -5 -14
-14 -18 -9 -3 -15 -18 -15 -41 0 -31 -18 -124 -26 -133 -1 -2 -14 4 -28 13
-14 9 -33 14 -44 11 -18 -6 -20 -1 -19 68 0 82 -6 93 -63 116 -44 17 -51 27
-45 65 3 17 7 59 10 95 3 36 9 97 15 135 5 39 6 90 4 115 -4 33 -3 41 5 30 5
-8 12 -12 14 -10 13 16 44 328 55 550 l7 155 38 0 c20 0 37 4 37 9 0 5 149 6
353 3 676 -12 680 -12 685 2 3 9 7 9 16 -2 8 -11 58 -17 196 -26 252 -15 268
-15 273 7 4 15 5 15 6 1 1 -13 17 -19 74 -25 39 -4 99 -7 133 -5 33 1 114 -5
180 -13 65 -8 178 -17 250 -21 73 -3 160 -10 195 -15 35 -6 127 -14 205 -20
77 -6 155 -15 174 -20 18 -5 111 -15 207 -22 95 -6 173 -15 173 -19 0 -4 57
-10 128 -13 170 -9 352 -27 352 -37 0 -4 28 -9 63 -12 75 -5 319 -34 402 -48
33 -5 119 -16 190 -24 179 -21 185 -22 191 -27 8 -9 -7 -58 -18 -58 -6 0 -8
-9 -5 -20 3 -11 1 -20 -3 -20 -5 0 -11 10 -13 23 -4 19 -4 18 -6 -5 -1 -26 -4
-28 -41 -28 -22 0 -40 -5 -40 -11 0 -5 -5 -7 -10 -4 -6 4 -16 2 -23 -3 -7 -5
-52 -12 -101 -16 -49 -3 -99 -9 -112 -12 -22 -6 -24 -3 -24 26 0 46 -21 110
-36 110 -7 0 -14 6 -16 13 -6 15 -185 17 -196 2 -12 -17 -52 -36 -52 -25 0 5
-7 10 -15 10 -8 0 -15 5 -15 10 0 6 -9 10 -20 10 -11 0 -20 -4 -20 -10 0 -5
-7 -10 -15 -10 -10 0 -15 -10 -15 -30 0 -20 -5 -30 -15 -30 -9 0 -15 -6 -13
-12 4 -22 -22 -86 -37 -92 -8 -3 -15 -14 -15 -24 0 -24 -31 -52 -58 -52 -16 0
-24 -9 -32 -39 -5 -21 -17 -42 -25 -45 -8 -3 -15 -10 -15 -15 0 -6 -11 -21
-24 -35 -20 -23 -31 -26 -89 -26 -63 0 -67 1 -73 26 -4 17 -2 29 6 34 7 4 9
13 5 19 -4 7 -2 17 3 24 14 17 32 110 32 160 0 60 -10 87 -30 87 -10 0 -25 7
-34 15 -8 8 -37 20 -65 27 -28 6 -51 15 -51 20 0 10 -100 8 -115 -2 -5 -4 -34
-13 -63 -20 -28 -6 -55 -16 -58 -21 -3 -5 -12 -9 -21 -9 -16 0 -93 -73 -93
-89 0 -5 -3 -11 -7 -13 -14 -6 -53 -67 -53 -83 0 -8 -7 -15 -15 -15 -10 0 -15
-10 -15 -26 0 -15 -8 -33 -17 -40 -11 -8 -13 -13 -5 -14 15 0 16 -60 1 -93 -6
-14 -22 -30 -35 -36 -13 -6 -24 -17 -24 -25 0 -7 -7 -17 -16 -20 -8 -3 -13
-10 -10 -14 6 -10 -77 -52 -102 -52 -15 0 -18 8 -18 48 0 69 -22 162 -40 162
-8 0 -14 5 -14 10 0 15 -54 12 -76 -5 -10 -8 -27 -15 -36 -15 -10 0 -18 -4
-18 -9 0 -5 -15 -16 -33 -24 -38 -19 -87 -61 -87 -77 0 -5 -4 -10 -10 -10 -5
0 -10 -9 -10 -20 0 -11 -4 -20 -10 -20 -6 0 -10 27 -10 60 l0 60 -39 0 c-42 0
-56 -11 -66 -53 -4 -15 -11 -27 -15 -27 -4 0 -10 -18 -14 -40 -4 -26 -11 -40
-21 -40 -9 0 -18 -12 -21 -30 -7 -32 -52 -61 -112 -73 -41 -8 -59 7 -96 82
-39 78 -60 94 -116 87 -69 -9 -173 -46 -192 -67 -28 -32 -38 -23 -38 35 0 34
-5 56 -12 59 -10 4 -10 8 1 16 13 8 13 31 1 168 -24 288 -25 296 -38 301 -6 2
-12 14 -12 27 0 54 -72 68 -91 18 -12 -31 -12 -155 0 -185 11 -28 31 -140 33
-188 1 -19 6 -41 11 -48 9 -11 7 -112 -7 -388 -4 -77 8 -99 54 -99 37 0 57 20
92 95 9 19 36 55 60 80 34 36 55 48 97 58 58 13 76 5 66 -29 -6 -19 49 -81 92
-103 57 -29 192 -12 228 28 6 6 19 18 29 26 18 14 19 13 13 -12 -11 -43 0 -58
44 -58 38 0 69 26 69 58 0 7 11 25 25 40 14 15 25 35 25 44 0 11 8 18 20 18
11 0 20 5 20 10 0 6 -4 10 -10 10 -5 0 -10 5 -10 10 0 6 6 10 13 10 7 0 27 16
46 35 18 19 39 35 46 35 8 0 21 7 30 17 21 20 31 7 40 -52 12 -75 26 -106 53
-116 42 -16 95 -17 117 -3 11 8 25 14 33 14 15 0 73 39 85 58 15 22 45 13 67
-22 39 -65 169 -85 260 -41 72 34 110 57 110 66 0 5 8 9 18 9 10 0 24 9 32 20
8 11 20 20 27 20 7 0 13 9 13 20 0 16 7 20 33 20 18 0 37 -4 42 -9 14 -12 162
7 202 26 29 13 34 13 55 -1 29 -21 88 -21 88 -1 0 8 9 19 20 25 11 6 20 17 20
26 0 8 7 17 15 20 8 4 15 12 15 19 0 7 9 15 21 18 12 3 18 10 14 16 -3 6 -11
9 -16 6 -5 -4 -9 -1 -9 4 0 6 5 11 10 11 6 0 10 11 10 25 0 14 5 25 10 25 6 0
15 11 20 25 5 14 14 25 20 25 13 0 62 55 72 82 5 13 18 18 43 18 22 0 38 6 41
15 4 8 17 15 31 15 25 0 25 -1 18 -57 -4 -32 -11 -62 -16 -67 -5 -6 -9 -29 -9
-53 0 -37 3 -43 25 -49 14 -3 41 -3 60 0 29 6 35 11 35 31 0 15 6 25 14 25 8
0 16 4 18 8 2 4 64 15 138 25 74 9 145 19 158 23 l23 7 -26 -38 c-14 -21 -28
-49 -31 -62 -4 -13 -10 -23 -15 -23 -5 0 -9 -6 -9 -14 0 -7 -7 -27 -15 -42 -8
-16 -15 -37 -15 -47 0 -20 -27 -88 -38 -97 -14 -10 -72 -202 -72 -239 0 -37
23 -71 48 -71 22 0 62 23 62 37 0 7 5 13 10 13 6 0 10 7 10 15 0 9 13 24 30
33 39 22 54 52 45 91 -5 25 -12 31 -31 31 -22 0 -24 3 -19 23 4 12 18 41 31
63 13 23 21 44 18 47 -3 3 8 35 25 71 17 37 31 68 31 71 0 3 11 23 25 45 14
22 25 50 25 63 0 38 44 52 233 74 26 3 50 9 52 14 3 4 30 5 60 2 38 -4 55 -2
55 6 0 6 9 11 20 11 42 0 103 38 98 62 -2 10 14 13 62 13 97 0 323 -14 425
-26 167 -19 649 -2 718 26 13 5 17 2 17 -14 0 -17 -5 -20 -27 -17 -16 2 -20 1
-10 -1 9 -2 17 -13 17 -24 0 -12 7 -19 20 -19 11 0 20 -7 20 -15 0 -20 15 -19
51 2 24 14 29 24 29 55 0 21 4 38 9 38 11 0 24 52 27 111 l2 46 -60 0 c-56 0
-59 -2 -56 -22 4 -18 1 -21 -19 -17 -13 2 -23 -1 -23 -7 0 -6 -9 -11 -20 -11
-11 0 -20 5 -20 10 0 6 -18 10 -40 10 -36 0 -40 -2 -40 -25 0 -25 -1 -26 -57
-22 -45 4 -50 3 -23 -3 44 -11 -386 -5 -665 9 -200 10 -308 18 -580 42 -66 6
-127 11 -137 11 -20 -1 -30 35 -17 59 5 10 9 27 9 38 0 37 34 45 113 24 58
-14 110 -18 262 -18 115 0 204 5 225 12 81 26 145 54 148 63 2 6 10 10 18 10
8 0 14 5 14 10 0 6 4 10 10 10 12 0 55 44 63 64 4 9 12 16 19 16 7 1 39 53 70
118 77 159 95 261 80 447 -6 76 -15 131 -21 133 -6 2 -11 23 -11 46 0 38 -6
49 -63 109 -35 37 -68 67 -75 67 -12 0 -51 19 -62 30 -9 10 -76 30 -98 30 -12
0 -22 4 -22 9 0 6 -21 12 -47 16 -64 7 -193 38 -193 45 0 3 -100 5 -222 5
-123 0 -213 -1 -200 -3z m-540 -422 c-15 -34 -28 -39 -28 -10 0 11 4 20 9 20
5 0 13 10 17 23 4 12 9 17 11 9 3 -6 -1 -26 -9 -42z m-4258 -65 c7 -8 10 -25
6 -40 -4 -14 -2 -25 4 -25 16 0 14 -377 -2 -382 -8 -3 -12 -18 -10 -40 l3 -36
-76 -4 c-78 -3 -105 7 -89 34 5 7 10 22 11 32 2 11 10 27 18 37 9 9 13 23 10
32 -4 8 5 32 19 54 29 45 45 113 26 113 -13 0 -5 71 9 80 5 3 11 34 15 70 10
84 28 109 56 75z m83 -288 c-9 -16 -23 6 -23 36 l1 32 13 -30 c7 -16 11 -33 9
-38z m4747 33 c0 -5 -4 -10 -9 -10 -6 0 -13 5 -16 10 -3 6 1 10 9 10 9 0 16
-4 16 -10z m-100 -140 c0 -16 -4 -30 -10 -30 -5 0 -10 14 -10 30 0 17 5 30 10
30 6 0 10 -13 10 -30z m67 -62 c-3 -7 -5 -2 -5 12 0 14 2 19 5 13 2 -7 2 -19
0 -25z m-4975 -20 c-15 -15 -24 -6 -16 16 5 12 10 14 17 7 8 -8 8 -14 -1 -23z
m-12 -48 c0 -5 -4 -10 -10 -10 -5 0 -10 5 -10 10 0 6 5 10 10 10 6 0 10 -4 10
-10z m130 -30 c0 -5 -2 -10 -4 -10 -3 0 -8 5 -11 10 -3 6 -1 10 4 10 6 0 11
-4 11 -10z m70 0 c0 -5 -7 -10 -15 -10 -8 0 -15 5 -15 10 0 6 7 10 15 10 8 0
15 -4 15 -10z m-4 -67 c4 -15 2 -34 -5 -45 -7 -11 -10 -27 -7 -36 12 -38 -48
-687 -64 -687 -1 0 -4 -9 -5 -20 -15 -110 -25 -199 -29 -240 -2 -27 -9 -72
-15 -100 -11 -48 -32 -241 -35 -315 0 -19 -5 -38 -10 -41 -13 -10 -46 2 -46
16 0 7 -7 19 -17 26 -9 8 -22 29 -30 47 -7 17 -18 32 -24 32 -16 0 -59 47 -59
65 0 8 5 15 10 15 6 0 10 9 10 20 0 11 5 20 10 20 6 0 10 7 10 16 0 9 7 30 16
47 31 59 34 67 34 84 0 20 28 53 45 53 14 0 29 170 18 210 -13 50 -33 70 -72
70 -35 0 -37 -2 -52 -47 -9 -31 -14 -83 -14 -145 1 -74 -2 -98 -12 -98 -7 0
-14 -9 -14 -20 -1 -11 -2 -26 -3 -32 -1 -7 -3 -15 -7 -18 -3 -3 -13 -26 -23
-52 -10 -26 -22 -51 -27 -54 -13 -8 0 116 13 133 6 7 8 19 5 27 -3 8 1 40 10
73 8 32 13 76 10 97 -4 25 -2 35 3 26 5 -8 11 -12 13 -10 7 8 54 224 55 250 0
14 5 41 11 60 5 19 15 69 21 110 6 41 20 113 30 160 26 120 40 203 40 228 0
13 7 25 16 29 11 4 14 14 10 34 l-5 28 67 4 c37 2 77 4 89 5 17 1 24 -5 29
-25z m1854 13 c0 -10 -11 -14 -39 -13 -26 2 -37 6 -34 15 7 17 73 16 73 -2z
m2930 -26 c0 -5 -4 -10 -10 -10 -5 0 -10 5 -10 10 0 6 5 10 10 10 6 0 10 -4
10 -10z m590 -50 c0 -5 -5 -10 -11 -10 -5 0 -7 5 -4 10 3 6 8 10 11 10 2 0 4
-4 4 -10z m-37 -17 c-7 -2 -19 -2 -25 0 -7 3 -2 5 12 5 14 0 19 -2 13 -5z
m1150 -150 c-7 -2 -19 -2 -25 0 -7 3 -2 5 12 5 14 0 19 -2 13 -5z m-1633 -117
c0 -28 -23 -35 -85 -25 -22 3 -30 7 -17 8 15 1 22 7 22 21 0 17 7 20 40 20 35
0 40 -3 40 -24z m-93 -42 c-3 -3 -12 -4 -19 -1 -8 3 -5 6 6 6 11 1 17 -2 13
-5z m-3280 -46 c-3 -7 -5 -2 -5 12 0 14 2 19 5 13 2 -7 2 -19 0 -25z m2523 22
c0 -5 -4 -10 -10 -10 -5 0 -10 5 -10 10 0 6 5 10 10 10 6 0 10 -4 10 -10z
m-751 -14 c7 -8 24 -17 38 -21 17 -4 22 -10 16 -16 -5 -5 -7 -32 -3 -61 13
-97 -42 -263 -91 -275 -10 -3 -20 -11 -23 -19 -7 -17 -59 -17 -137 -1 -73 16
-90 30 -83 70 8 47 25 87 37 87 6 0 8 21 4 58 -6 51 -3 63 17 90 32 44 69 71
118 87 57 18 93 18 107 1z m-1762 -93 c-3 -10 -5 -4 -5 12 0 17 2 24 5 18 2
-7 2 -21 0 -30z m2388 -33 c3 -5 1 -10 -4 -10 -6 0 -11 5 -11 10 0 6 2 10 4
10 3 0 8 -4 11 -10z m-4222 -112 c-3 -21 -9 -38 -14 -38 -10 0 -12 73 -2 84
13 13 20 -9 16 -46z m3301 -4 c9 -36 -1 -43 -14 -10 -12 33 -12 36 -1 36 5 0
12 -12 15 -26z m693 -36 c-3 -8 -6 -5 -6 6 -1 11 2 17 5 13 3 -3 4 -12 1 -19z
m-277 2 c0 -5 -4 -10 -10 -10 -5 0 -10 5 -10 10 0 6 5 10 10 10 6 0 10 -4 10
-10z m-3368 -62 c-2 -21 -8 -38 -13 -38 -14 0 -11 49 4 64 15 18 15 18 9 -26z
m1515 10 c-3 -7 -5 -2 -5 12 0 14 2 19 5 13 2 -7 2 -19 0 -25z m1049 -5 c-10
-10 -19 5 -10 18 6 11 8 11 12 0 2 -7 1 -15 -2 -18z m249 -82 c-4 -18 -13 -31
-22 -31 -8 0 -13 3 -11 8 34 70 45 77 33 23z m-2835 -21 c0 -5 -4 -10 -10 -10
-5 0 -10 5 -10 10 0 6 5 10 10 10 6 0 10 -4 10 -10z m2350 -30 c0 -5 -7 -10
-16 -10 -8 0 -12 5 -9 10 3 6 10 10 16 10 5 0 9 -4 9 -10z m-660 -30 c0 -5
-11 -10 -25 -10 -14 0 -25 5 -25 10 0 6 11 10 25 10 14 0 25 -4 25 -10z
m-1700 -15 c0 -8 -4 -15 -10 -15 -5 0 -10 7 -10 15 0 8 5 15 10 15 6 0 10 -7
10 -15z m2184 -9 c-6 -16 -24 -23 -24 -8 0 10 22 33 27 28 2 -2 1 -11 -3 -20z
m2316 -6 c0 -5 -4 -10 -10 -10 -5 0 -10 5 -10 10 0 6 5 10 10 10 6 0 10 -4 10
-10z m10 -52 c0 -16 -3 -19 -11 -11 -6 6 -8 16 -5 22 11 17 16 13 16 -11z
m-4170 -178 c0 -11 -4 -20 -10 -20 -5 0 -10 9 -10 20 0 11 5 20 10 20 6 0 10
-9 10 -20z m-283 -15 c7 -20 0 -27 -20 -19 -9 3 -13 12 -10 20 7 19 22 18 30
-1z m-497 -41 c0 -8 -5 -12 -10 -9 -6 4 -8 11 -5 16 9 14 15 11 15 -7z m390
-69 c0 -49 -3 -65 -14 -65 -8 0 -13 7 -11 18 2 9 7 38 10 65 3 26 8 47 11 47
2 0 4 -29 4 -65z m5067 33 c-3 -7 -5 -2 -5 12 0 14 2 19 5 13 2 -7 2 -19 0
-25z m-5470 -14 c-9 -9 -28 6 -21 18 4 6 10 6 17 -1 6 -6 8 -13 4 -17z m493
-9 c0 -14 -9 -18 -27 -13 -5 1 -11 -11 -14 -28 -6 -26 -7 -24 -8 14 -1 38 1
42 24 42 16 0 25 -6 25 -15z m4510 -5 c0 -5 -4 -10 -10 -10 -5 0 -10 5 -10 10
0 6 5 10 10 10 6 0 10 -4 10 -10z m-4370 -24 c0 -8 6 -16 13 -19 6 -2 9 -8 5
-12 -8 -9 -38 18 -38 34 0 6 5 11 10 11 6 0 10 -6 10 -14z m-20 -46 c0 -5 -7
-10 -16 -10 -8 0 -12 5 -9 10 3 6 10 10 16 10 5 0 9 -4 9 -10z m-475 -46 c-16
-12 -17 -17 -7 -32 7 -9 16 -27 22 -39 5 -13 16 -23 25 -23 8 0 15 -6 15 -14
0 -14 48 -41 84 -48 18 -3 19 -13 17 -173 -1 -93 -6 -172 -11 -175 -11 -7 -18
-166 -26 -560 l-6 -325 -72 -17 c-39 -10 -109 -22 -156 -28 -47 -7 -86 -16
-88 -21 -2 -5 -18 -9 -35 -9 -18 0 -48 -4 -67 -9 -19 -5 -48 -12 -64 -16 l-29
-6 7 93 c4 51 12 95 18 99 6 4 14 51 19 105 4 55 13 122 18 149 5 28 10 71 10
98 1 26 5 47 10 47 5 0 11 21 14 48 11 87 19 137 24 152 3 8 7 22 9 30 22 116
38 185 53 235 11 33 25 86 32 118 6 31 15 57 19 57 4 0 15 18 25 40 12 26 25
40 37 40 10 0 18 7 18 15 0 9 7 18 15 21 8 4 15 15 15 25 0 14 -7 19 -25 19
-15 0 -25 6 -25 14 0 22 23 34 58 30 17 -2 32 -1 32 2 0 10 -28 34 -40 34 -6
0 -8 5 -5 10 4 6 11 8 16 5 5 -4 9 1 9 9 0 11 9 16 28 16 26 -1 26 -1 7 -16z
m385 6 c0 -5 -16 -10 -36 -10 -24 0 -41 -6 -50 -17 -16 -22 -28 -12 -19 16 5
18 15 21 56 21 27 0 49 -4 49 -10z m-318 -32 c-6 -6 -20 -7 -32 -3 -16 5 -19
9 -10 15 17 11 54 0 42 -12z m175 -20 c-3 -8 -6 -5 -6 6 -1 11 2 17 5 13 3 -3
4 -12 1 -19z m353 12 c0 -5 -2 -10 -4 -10 -3 0 -8 5 -11 10 -3 6 -1 10 4 10 6
0 11 -4 11 -10z m-245 -9 c6 -11 -1 -16 -38 -25 -27 -6 -27 -6 -10 13 20 21
39 26 48 12z m4879 -146 c-17 -39 -17 -39 -25 -15 -6 18 -7 13 -4 -17 3 -26 1
-43 -5 -43 -5 0 -10 -9 -10 -19 0 -29 -42 -135 -57 -144 -7 -4 -13 -13 -13
-19 0 -17 -62 -139 -89 -178 -32 -44 -72 -80 -88 -80 -7 0 -13 -6 -14 -12 0
-9 -2 -9 -5 -2 -7 18 -44 4 -44 -16 0 -20 -36 -30 -106 -30 -23 0 -46 -4 -49
-10 -3 -5 -20 -10 -37 -10 -49 0 -15 30 36 31 30 2 33 3 14 6 -16 2 -28 10
-28 17 0 13 24 69 41 96 5 8 13 25 18 37 6 11 15 24 20 28 6 3 11 19 11 36 0
16 5 29 10 29 6 0 10 9 10 20 0 11 5 20 10 20 6 0 10 13 10 29 0 16 6 32 13
35 9 5 9 7 -1 12 -8 4 -9 10 -4 17 5 7 17 39 26 72 29 97 38 114 66 118 17 3
14 4 -12 6 -21 0 -38 5 -38 10 0 12 76 21 194 22 56 1 115 4 131 8 37 8 41 -3
19 -54z m-5419 15 c3 -5 1 -10 -4 -10 -6 0 -11 5 -11 10 0 6 2 10 4 10 3 0 8
-4 11 -10z m1495 -104 c48 -25 90 -66 90 -88 0 -10 9 -27 21 -39 12 -12 24
-39 26 -60 3 -21 9 -39 14 -39 5 0 6 -6 3 -14 -3 -8 -1 -17 5 -21 16 -9 13
-129 -4 -215 -21 -102 -21 -100 -57 -142 -18 -20 -42 -47 -53 -61 -33 -40
-188 -134 -260 -157 -22 -7 -44 -16 -50 -20 -5 -5 -27 -11 -49 -15 l-38 -8 5
69 c3 38 13 103 21 144 8 41 15 112 15 157 1 45 6 85 11 88 6 4 10 12 9 18 -1
7 0 28 4 47 16 94 17 130 2 130 -8 0 -15 7 -15 16 0 10 6 14 15 10 26 -10 20
74 -9 107 -31 36 -40 34 -56 -13 -10 -32 -18 -40 -37 -40 -17 0 -23 -6 -24
-22 -1 -22 -1 -22 -9 2 -7 21 -8 18 -9 -18 l-1 -43 -22 21 c-12 11 -25 20 -30
20 -4 0 -8 20 -8 45 0 25 5 45 10 45 6 0 10 5 10 11 0 20 58 69 89 75 17 4 31
10 31 15 0 13 56 17 190 15 98 -2 133 -6 160 -20z m-490 -36 c0 -5 -4 -10 -10
-10 -5 0 -10 5 -10 10 0 6 5 10 10 10 6 0 10 -4 10 -10z m-63 -102 c-3 -7 -5
-2 -5 12 0 14 2 19 5 13 2 -7 2 -19 0 -25z m3427 -44 c9 -3 16 -15 16 -25 0
-11 7 -19 16 -19 11 0 14 -6 9 -22 -4 -13 -11 -27 -16 -32 -5 -6 -9 -24 -9
-42 0 -19 -6 -34 -15 -38 -8 -3 -15 -15 -15 -26 0 -11 -9 -28 -20 -37 -11 -10
-20 -23 -20 -30 0 -7 -9 -17 -20 -23 -11 -6 -20 -20 -20 -30 0 -11 -5 -20 -10
-20 -10 0 -22 -8 -55 -38 -9 -8 -52 -16 -105 -19 l-90 -6 0 42 c0 23 9 59 19
79 34 67 71 152 71 164 0 16 61 78 77 78 7 0 13 8 13 18 0 10 3 22 7 25 8 9
146 9 167 1z m1773 -10 c-3 -3 -12 -4 -19 -1 -8 3 -5 6 6 6 11 1 17 -2 13 -5z
m-4430 -56 c-3 -8 -6 -5 -6 6 -1 11 2 17 5 13 3 -3 4 -12 1 -19z m4288 -13
c-79 -38 -160 -67 -189 -66 -11 0 -24 -6 -30 -13 -12 -14 -97 -37 -211 -56
-38 -7 -90 -19 -114 -26 -24 -8 -46 -12 -50 -8 -3 4 0 9 7 11 6 3 12 11 12 19
0 8 5 14 10 14 6 0 10 9 10 20 0 11 5 20 10 20 6 0 10 7 10 15 0 8 9 15 20 15
22 0 27 -15 8 -23 -7 -3 -3 -6 10 -6 19 -1 22 4 22 35 0 34 1 35 22 20 39 -28
140 -20 335 25 45 10 93 19 107 19 14 0 28 5 31 10 3 6 16 10 28 10 14 0 -5
-14 -48 -35z m-1885 15 c0 -5 -4 -10 -10 -10 -5 0 -10 5 -10 10 0 6 5 10 10
10 6 0 10 -4 10 -10z m830 -50 c0 -5 -5 -10 -11 -10 -5 0 -7 5 -4 10 3 6 8 10
11 10 2 0 4 -4 4 -10z m-1140 -30 c0 -5 -6 -10 -14 -10 -8 0 -18 5 -21 10 -3
6 3 10 14 10 12 0 21 -4 21 -10z m-257 -22 c15 -12 15 -20 3 -83 -17 -87 -26
-115 -37 -115 -5 0 -9 -11 -9 -25 0 -29 -40 -75 -65 -75 -8 0 -15 -4 -15 -9 0
-4 -38 -11 -84 -15 -46 -3 -92 -9 -102 -13 -15 -6 -16 0 -12 62 4 48 11 71 22
77 9 5 16 17 16 26 1 20 23 52 36 52 15 0 64 82 64 106 0 21 157 31 183 12z
m-2378 -108 c3 -5 1 -10 -4 -10 -6 0 -11 5 -11 10 0 6 2 10 4 10 3 0 8 -4 11
-10z m935 -20 c0 -5 -7 -10 -15 -10 -8 0 -15 5 -15 10 0 6 7 10 15 10 8 0 15
-4 15 -10z m-27 -49 c23 -18 23 -81 1 -81 -26 0 -82 -39 -88 -60 -4 -11 -9
-29 -12 -40 -4 -14 -1 -20 10 -20 18 0 57 20 68 35 4 6 8 -1 8 -15 0 -19 2
-22 10 -10 5 8 12 11 17 7 4 -4 2 -17 -5 -27 -8 -13 -10 -35 -6 -60 6 -37 5
-40 -16 -40 -12 0 -48 -6 -79 -14 -31 -8 -97 -17 -148 -21 l-91 -6 -4 63 c-2
35 1 66 6 69 5 4 6 16 4 27 -4 14 -2 19 7 16 7 -3 26 13 41 35 16 22 37 43 47
47 9 3 17 12 17 20 0 8 8 14 18 14 9 0 28 9 42 20 14 11 31 20 38 20 6 0 12 8
12 18 0 13 9 17 43 17 24 0 51 -6 60 -14z m1137 -1 c0 -5 -4 -10 -10 -10 -5 0
-10 5 -10 10 0 6 5 10 10 10 6 0 10 -4 10 -10z m-60 -10 c0 -5 -7 -10 -16 -10
-8 0 -12 5 -9 10 3 6 10 10 16 10 5 0 9 -4 9 -10z m-366 -62 c-4 -34 -13 -73
-20 -87 -8 -14 -14 -34 -14 -43 0 -21 -45 -36 -122 -41 -66 -4 -69 1 -41 61
21 45 115 142 137 142 9 0 16 4 16 9 0 5 10 12 23 14 12 2 23 5 25 6 2 0 0
-27 -4 -61z m-904 38 c0 -3 -4 -8 -10 -11 -5 -3 -10 -1 -10 4 0 6 5 11 10 11
6 0 10 -2 10 -4z m-730 -42 c0 -13 -4 -24 -10 -24 -5 0 -10 14 -10 31 0 17 4
28 10 24 6 -3 10 -17 10 -31z m4103 29 c-7 -2 -21 -2 -30 0 -10 3 -4 5 12 5
17 0 24 -2 18 -5z m-2623 -17 c0 -3 -4 -8 -10 -11 -5 -3 -10 -1 -10 4 0 6 5
11 10 11 6 0 10 -2 10 -4z m1260 -6 c0 -12 -28 -25 -36 -17 -9 9 6 27 22 27 8
0 14 -5 14 -10z m-90 -4 c0 -3 -4 -8 -10 -11 -5 -3 -10 -1 -10 4 0 6 5 11 10
11 6 0 10 -2 10 -4z m30 -6 c0 -5 -4 -10 -10 -10 -5 0 -10 5 -10 10 0 6 5 10
10 10 6 0 10 -4 10 -10z m610 -5 c0 -8 -4 -15 -10 -15 -5 0 -10 7 -10 15 0 8
5 15 10 15 6 0 10 -7 10 -15z m328 -12 c-10 -2 -26 -2 -35 0 -10 3 -2 5 17 5
19 0 27 -2 18 -5z m-2168 -6 c0 -7 -37 -47 -44 -47 -13 0 -5 23 12 36 16 13
32 18 32 11z m-830 -47 c0 -5 -4 -10 -10 -10 -5 0 -10 5 -10 10 0 6 5 10 10
10 6 0 10 -4 10 -10z m1320 -15 c0 -8 -7 -15 -15 -15 -8 0 -15 7 -15 15 0 8 7
15 15 15 8 0 15 -7 15 -15z m-2714 -63 c-11 -10 -15 4 -8 28 l7 25 3 -23 c2
-13 1 -26 -2 -30z m1814 6 c0 -24 -4 -38 -8 -32 -4 7 -16 14 -27 17 -18 4 -18
5 3 6 17 1 22 7 22 26 0 14 2 25 5 25 3 0 5 -19 5 -42z m1326 18 c8 -8 14 -19
14 -25 0 -13 2 -13 34 -1 29 11 32 4 13 -25 -8 -11 -19 -45 -25 -75 -7 -30
-21 -68 -32 -85 -11 -16 -20 -42 -20 -57 0 -16 -5 -28 -10 -28 -6 0 -14 -8
-17 -17 -12 -31 -70 -117 -94 -140 -13 -12 -44 -43 -69 -68 -28 -30 -75 -61
-125 -86 -73 -35 -81 -37 -92 -22 -7 9 -13 29 -13 44 0 15 -3 34 -6 43 -4 11
-1 16 10 16 12 0 15 7 11 28 -3 15 -2 21 1 15 9 -20 24 -15 24 7 0 11 4 20 10
20 5 0 13 12 16 28 4 15 16 33 26 40 10 7 18 19 18 25 0 7 -4 6 -10 -3 -17
-26 -22 -2 -6 28 20 39 36 49 36 23 0 -12 7 -21 15 -21 11 0 15 11 15 40 0 22
5 40 10 40 6 0 10 9 10 20 0 12 7 20 16 20 9 0 18 9 21 20 3 10 14 22 24 25
10 4 19 13 19 21 0 8 6 14 14 14 8 0 17 9 21 19 3 11 15 23 26 26 10 4 19 11
19 16 0 5 10 9 23 9 28 0 67 26 67 46 0 8 -7 14 -16 14 -8 0 -12 5 -9 10 8 13
14 13 31 -4z m-576 -26 c0 -19 -46 -48 -57 -36 -3 2 5 7 16 11 12 3 21 15 21
26 0 10 5 19 10 19 6 0 10 -9 10 -20z m-440 -20 c0 -5 -4 -10 -10 -10 -5 0
-10 5 -10 10 0 6 5 10 10 10 6 0 10 -4 10 -10z m-340 -14 c0 -3 -4 -8 -10 -11
-5 -3 -10 -1 -10 4 0 6 5 11 10 11 6 0 10 -2 10 -4z m1466 -32 c-22 -21 -31
-12 -14 15 7 12 16 17 22 11 5 -5 2 -15 -8 -26z m-2216 16 c0 -5 -4 -10 -10
-10 -5 0 -10 5 -10 10 0 6 5 10 10 10 6 0 10 -4 10 -10z m1207 -26 c-3 -3 -12
-4 -19 -1 -8 3 -5 6 6 6 11 1 17 -2 13 -5z m616 -119 c-7 -21 -13 -19 -13 6 0
11 4 18 10 14 5 -3 7 -12 3 -20z m-63 -55 c0 -5 -4 -10 -10 -10 -5 0 -10 5
-10 10 0 6 5 10 10 10 6 0 10 -4 10 -10z m-2120 -110 c0 -5 -4 -10 -10 -10 -5
0 -10 5 -10 10 0 6 5 10 10 10 6 0 10 -4 10 -10z m2450 -10 c0 -5 -5 -10 -11
-10 -5 0 -7 5 -4 10 3 6 8 10 11 10 2 0 4 -4 4 -10z m-2460 -30 c0 -5 -4 -10
-10 -10 -5 0 -10 5 -10 10 0 6 5 10 10 10 6 0 10 -4 10 -10z m2440 1 c0 -12
-20 -25 -27 -18 -7 7 6 27 18 27 5 0 9 -4 9 -9z m-3165 -21 c3 -5 1 -10 -4
-10 -6 0 -11 5 -11 10 0 6 2 10 4 10 3 0 8 -4 11 -10z m65 -40 c0 -5 -4 -10
-10 -10 -5 0 -10 5 -10 10 0 6 5 10 10 10 6 0 10 -4 10 -10z m-650 -80 c0 -5
-4 -10 -10 -10 -5 0 -10 5 -10 10 0 6 5 10 10 10 6 0 10 -4 10 -10z m3600 0
c12 -8 11 -10 -7 -10 -13 0 -23 5 -23 10 0 13 11 13 30 0z m-270 -70 c0 -5 -4
-10 -10 -10 -5 0 -10 5 -10 10 0 6 5 10 10 10 6 0 10 -4 10 -10z m60 -40 c0
-5 -7 -10 -15 -10 -8 0 -15 5 -15 10 0 6 7 10 15 10 8 0 15 -4 15 -10z m-2140
-10 c0 -5 -4 -10 -10 -10 -5 0 -10 5 -10 10 0 6 5 10 10 10 6 0 10 -4 10 -10z"/>
<path d="M9521 2094 c0 -11 3 -14 6 -6 3 7 2 16 -1 19 -3 4 -6 -2 -5 -13z"/>
<path d="M9430 1966 c0 -8 -8 -17 -17 -20 -13 -5 -14 -9 -4 -19 10 -9 15 -8
27 7 16 23 18 46 4 46 -5 0 -10 -6 -10 -14z"/>
<path d="M10088 2003 c7 -3 16 -2 19 1 4 3 -2 6 -13 5 -11 0 -14 -3 -6 -6z"/>
<path d="M10048 1983 c6 -2 18 -2 25 0 6 3 1 5 -13 5 -14 0 -19 -2 -12 -5z"/>
<path d="M10448 4543 c7 -3 16 -2 19 1 4 3 -2 6 -13 5 -11 0 -14 -3 -6 -6z"/>
<path d="M10592 4330 c0 -14 2 -19 5 -12 2 6 2 18 0 25 -3 6 -5 1 -5 -13z"/>
<path d="M10401 4214 c0 -11 3 -14 6 -6 3 7 2 16 -1 19 -3 4 -6 -2 -5 -13z"/>
<path d="M9738 3983 c7 -3 16 -2 19 1 4 3 -2 6 -13 5 -11 0 -14 -3 -6 -6z"/>
<path d="M10128 3983 c6 -2 18 -2 25 0 6 3 1 5 -13 5 -14 0 -19 -2 -12 -5z"/>
<path d="M10618 3703 c7 -3 16 -2 19 1 4 3 -2 6 -13 5 -11 0 -14 -3 -6 -6z"/>
<path d="M10698 3703 c12 -2 32 -2 45 0 12 2 2 4 -23 4 -25 0 -35 -2 -22 -4z"/>
<path d="M10208 3593 c6 -2 18 -2 25 0 6 3 1 5 -13 5 -14 0 -19 -2 -12 -5z"/>
<path d="M8882 3530 c0 -14 2 -19 5 -12 2 6 2 18 0 25 -3 6 -5 1 -5 -13z"/>
<path d="M5838 3344 c-44 -18 -56 -30 -80 -75 -28 -52 -33 -75 -30 -136 2 -36
50 -98 85 -109 12 -4 24 -10 27 -14 3 -4 31 -19 62 -34 66 -30 83 -54 74 -102
-7 -37 -31 -51 -118 -74 -38 -10 -51 -10 -62 0 -9 6 -19 9 -25 6 -5 -3 -11 -2
-13 3 -5 14 -78 26 -78 12 0 -6 -4 -11 -10 -11 -5 0 -10 8 -10 19 0 12 -12 23
-32 32 -18 7 -35 15 -38 18 -3 3 -14 11 -25 17 -11 6 -21 23 -23 38 -2 14 -8
26 -13 26 -5 0 -9 7 -9 15 0 8 -8 15 -17 15 -34 0 -63 -12 -63 -26 0 -8 -4
-14 -10 -14 -5 0 -10 -9 -10 -20 0 -11 5 -20 11 -20 12 0 3 -71 -10 -80 -13
-8 -43 -131 -48 -192 l-5 -56 32 -7 c17 -4 33 -5 34 -3 13 16 46 98 46 114 0
10 7 32 15 48 8 15 15 36 15 45 1 17 23 51 34 51 3 0 6 -6 6 -14 0 -7 20 -19
44 -26 25 -7 47 -18 50 -26 3 -8 12 -14 21 -14 8 0 15 -4 15 -10 0 -26 230
-44 245 -19 4 6 13 8 20 5 18 -6 95 33 95 49 0 7 9 24 20 38 14 18 20 40 20
77 0 67 -42 133 -96 150 -60 20 -150 79 -163 106 -16 36 5 78 42 82 25 3 27 1
27 -32 0 -20 4 -36 9 -36 5 0 11 -11 13 -25 3 -24 4 -25 26 -10 12 9 22 27 22
40 0 13 4 25 10 27 5 2 11 29 12 60 2 45 -2 64 -18 85 -26 35 -57 36 -126 7z
m-328 -453 c0 -10 -8 -25 -17 -32 -15 -12 -16 -12 -10 4 4 10 7 25 7 33 0 8 5
14 10 14 6 0 10 -8 10 -19z m30 -35 c0 -3 -4 -8 -10 -11 -5 -3 -10 -1 -10 4 0
6 5 11 10 11 6 0 10 -2 10 -4z m500 -16 c0 -5 -2 -10 -4 -10 -3 0 -8 5 -11 10
-3 6 -1 10 4 10 6 0 11 -4 11 -10z m-296 -56 c9 -3 16 -10 16 -14 0 -8 -67 4
-77 14 -8 8 41 8 61 0z m-314 -144 c0 -5 -5 -10 -11 -10 -5 0 -7 5 -4 10 3 6
8 10 11 10 2 0 4 -4 4 -10z"/>
<path d="M8872 3330 c0 -14 2 -19 5 -12 2 6 2 18 0 25 -3 6 -5 1 -5 -13z"/>
<path d="M5358 3243 c-19 -5 -31 -43 -23 -75 3 -13 7 -36 9 -52 3 -16 7 -31
10 -33 9 -9 38 6 31 17 -3 5 7 12 22 16 15 3 32 7 37 8 5 1 15 18 22 37 9 28
9 39 -4 62 -13 22 -23 27 -52 26 -19 -1 -42 -3 -52 -6z"/>
<path d="M8151 3164 c0 -11 3 -14 6 -6 3 7 2 16 -1 19 -3 4 -6 -2 -5 -13z"/>
<path d="M8436 3172 c-8 -14 5 -52 18 -52 7 0 13 13 13 30 0 28 -19 41 -31 22z"/>
<path d="M2973 2893 c-7 -2 -13 -13 -13 -23 0 -10 -8 -25 -18 -32 -16 -11 -18
-30 -18 -153 0 -95 -5 -164 -17 -215 -9 -41 -22 -103 -28 -138 -7 -34 -16 -65
-20 -68 -5 -3 -9 -19 -9 -36 0 -16 -9 -41 -19 -54 -11 -14 -22 -42 -26 -63 -5
-32 -11 -40 -34 -44 -16 -3 -36 -13 -44 -22 -9 -8 -22 -15 -29 -15 -7 -1 -30
-7 -50 -14 -34 -12 -39 -12 -55 6 -14 15 -17 33 -14 72 2 28 6 53 10 56 10 8
31 74 31 98 0 12 5 22 10 22 6 0 10 15 10 33 0 17 9 66 20 107 15 58 20 108
20 226 0 149 0 151 -24 164 -30 15 -98 6 -90 -13 2 -7 -2 -42 -11 -78 -8 -35
-15 -80 -15 -100 0 -20 -3 -38 -6 -42 -4 -3 -8 -43 -11 -89 -3 -46 -9 -84 -14
-86 -5 -2 -9 -15 -9 -28 0 -13 -3 -24 -6 -24 -3 0 -26 21 -51 46 l-45 47 -75
-6 c-47 -4 -81 -11 -92 -21 -10 -9 -24 -16 -32 -16 -8 0 -31 -17 -50 -38 -19
-21 -43 -41 -52 -45 -9 -3 -17 -12 -17 -19 0 -7 -9 -19 -20 -26 -11 -7 -20
-21 -20 -32 0 -11 -4 -20 -10 -20 -21 0 -41 -77 -44 -172 -3 -92 -5 -98 -35
-130 -17 -18 -31 -38 -31 -44 0 -16 -57 -15 -71 2 -8 9 -9 36 -5 81 18 185 18
203 7 203 -6 0 -11 7 -11 15 0 8 -8 15 -18 15 -23 0 -62 32 -62 51 0 14 -43
39 -67 39 -7 0 -13 5 -13 10 0 25 -143 -2 -171 -32 -9 -10 -21 -18 -28 -18 -6
0 -27 -18 -46 -39 -23 -25 -48 -41 -71 -45 -19 -4 -38 -14 -41 -22 -3 -7 -14
-14 -24 -14 -14 0 -19 -7 -19 -30 0 -16 -3 -30 -8 -30 -4 0 -13 -13 -20 -30
-8 -16 -20 -30 -28 -30 -8 0 -17 -7 -20 -15 -4 -8 -15 -15 -26 -15 -23 0 -22
-35 -2 340 3 63 10 119 15 125 5 5 9 71 9 147 0 111 -3 138 -14 138 -8 0 -16
7 -20 15 -7 19 -89 21 -105 2 -6 -8 -9 -16 -6 -19 2 -2 9 -35 14 -74 12 -78
-4 -357 -19 -362 -6 -2 -10 -12 -10 -23 0 -16 -8 -19 -42 -20 -36 -1 -39 -2
-18 -9 31 -9 20 -14 -77 -30 -76 -14 -195 -7 -201 10 -2 6 -10 10 -18 10 -22
0 -74 55 -74 77 0 11 -9 28 -20 38 -21 19 -27 69 -9 80 5 4 15 18 20 32 5 14
18 27 29 30 15 4 20 14 20 43 l0 37 -61 6 c-72 6 -89 2 -89 -23 0 -10 -5 -20
-11 -22 -14 -5 -24 -131 -15 -192 5 -30 12 -46 22 -46 8 0 14 -8 14 -18 0 -18
38 -62 53 -62 4 0 23 -16 43 -35 19 -19 43 -35 53 -35 11 0 21 -4 23 -10 2 -5
39 -15 83 -21 68 -9 92 -8 160 7 44 9 85 23 90 29 6 7 19 15 30 18 19 7 20 3
17 -106 -3 -120 -7 -142 -21 -132 -5 3 -16 -3 -23 -13 -9 -13 -31 -21 -72 -25
-33 -3 -62 -11 -66 -17 -4 -6 -38 -14 -76 -18 -60 -6 -70 -10 -83 -33 -38 -68
36 -84 199 -44 61 15 112 26 113 24 16 -23 25 -59 16 -65 -6 -3 -9 -16 -8 -27
3 -42 -1 -57 -15 -57 -21 0 -26 -23 -26 -124 0 -102 7 -116 55 -116 57 0 64
17 81 208 4 39 11 72 15 72 5 0 9 27 9 59 0 33 4 63 10 66 6 3 10 17 10 30 0
22 17 35 45 35 7 0 18 -20 24 -45 6 -25 16 -45 21 -45 6 0 10 -7 10 -16 0 -19
48 -64 68 -64 6 0 12 -4 12 -9 0 -22 183 -40 196 -19 3 4 16 8 29 8 15 0 42
19 77 53 56 57 113 81 124 52 11 -28 116 -19 184 15 69 35 76 36 97 14 14 -13
35 -15 120 -12 94 3 105 6 128 28 32 33 47 45 75 60 13 7 34 25 48 41 13 16
34 29 46 29 26 0 76 -21 76 -32 0 -5 27 -8 60 -8 33 0 60 4 60 10 0 6 9 10 20
10 11 0 20 5 20 10 0 6 18 10 40 10 33 0 40 3 40 20 0 11 6 20 13 20 8 0 22 9
32 20 9 10 34 25 54 31 38 13 60 34 61 60 0 25 49 119 65 125 8 4 15 19 15 35
0 18 7 32 20 39 11 6 20 21 20 34 0 15 10 30 28 41 15 10 31 24 35 32 4 7 19
13 32 13 14 0 25 4 25 8 0 4 9 8 20 9 16 1 20 -4 20 -26 0 -15 -9 -36 -20 -46
-11 -10 -20 -25 -20 -33 0 -9 -9 -26 -21 -38 -15 -16 -22 -40 -26 -96 -6 -79
3 -110 47 -156 20 -22 28 -23 79 -17 82 10 201 77 201 114 0 6 9 11 20 11 11
0 20 -3 20 -8 0 -17 69 -37 125 -37 62 0 145 21 145 37 0 4 9 8 19 8 11 0 23
5 26 10 3 6 17 10 31 10 14 0 27 7 31 18 9 25 23 32 65 32 49 0 118 68 118
118 0 23 -5 32 -16 32 -17 0 -54 -36 -54 -52 0 -4 -7 -8 -15 -8 -24 0 -17 38
15 87 16 24 30 50 30 58 0 7 4 15 10 17 5 2 13 49 16 105 6 87 5 104 -10 118
-9 9 -16 23 -16 31 0 14 -38 34 -65 34 -8 0 -25 -11 -39 -25 -14 -14 -29 -25
-34 -25 -5 0 -18 -10 -30 -23 -17 -18 -22 -36 -22 -79 0 -39 -5 -62 -17 -73
-13 -13 -17 -43 -21 -141 -3 -89 -1 -124 7 -124 6 0 11 -4 11 -10 0 -5 -11
-10 -23 -10 -13 0 -32 -9 -42 -20 -36 -40 -133 -51 -168 -19 -17 16 -7 112 15
136 20 22 48 127 48 177 0 26 -7 44 -25 61 -24 25 -75 35 -75 15 0 -5 -7 -10
-15 -10 -8 0 -15 -7 -15 -16 0 -9 -11 -27 -25 -40 -21 -20 -25 -32 -25 -84 0
-33 -4 -60 -9 -60 -14 0 -20 -101 -9 -151 9 -38 8 -51 -5 -68 l-15 -22 -15 21
c-13 19 -17 20 -38 8 -12 -7 -33 -22 -46 -33 -41 -34 -69 -36 -82 -8 -16 34
-14 89 4 107 8 8 15 22 15 30 0 9 4 16 8 16 13 0 38 60 57 137 16 67 16 72 -1
98 -18 27 -19 28 -103 22 -69 -4 -88 -9 -101 -25 -9 -11 -31 -23 -49 -27 -29
-6 -32 -5 -27 11 3 11 8 72 11 137 6 116 -5 215 -28 245 -9 12 -50 15 -74 5z
m37 -249 c0 -8 -4 -14 -10 -14 -5 0 -10 9 -10 21 0 11 5 17 10 14 6 -3 10 -13
10 -21z m1000 -13 c0 -14 -5 -18 -20 -14 -25 7 -26 20 -2 26 9 3 18 5 20 6 1
0 2 -8 2 -18z m-40 -76 c0 -25 1 -48 3 -52 1 -5 -9 -10 -22 -11 -19 -3 -22 0
-17 13 3 9 9 34 12 56 9 53 24 49 24 -6z m-2843 -57 c-3 -7 -5 -2 -5 12 0 14
2 19 5 13 2 -7 2 -19 0 -25z m1473 -3 c0 -26 -3 -33 -15 -29 -16 6 -19 22 -9
48 11 28 24 17 24 -19z m1290 -5 c0 -11 -4 -20 -10 -20 -5 0 -10 9 -10 20 0
11 5 20 10 20 6 0 10 -9 10 -20z m-930 -50 c0 -5 -9 -10 -20 -10 -11 0 -20 5
-20 10 0 6 9 10 20 10 11 0 20 -4 20 -10z m55 0 c3 -5 1 -10 -4 -10 -6 0 -11
5 -11 10 0 6 2 10 4 10 3 0 8 -4 11 -10z m924 -65 c1 -5 -6 -2 -15 7 -10 9
-13 21 -8 29 5 9 9 8 15 -7 4 -10 8 -23 8 -29z m-944 16 c-3 -6 -14 -11 -23
-11 -13 0 -13 2 4 14 21 15 30 14 19 -3z m-655 -101 c0 -13 7 -20 19 -20 13 0
20 -9 25 -30 6 -35 -3 -90 -15 -90 -5 0 -9 -26 -9 -57 0 -45 -5 -62 -22 -80
-12 -13 -27 -38 -33 -56 -8 -24 -18 -33 -45 -39 -69 -15 -121 10 -134 65 -7
28 11 87 26 87 5 0 8 18 8 40 0 22 -4 40 -10 40 -16 0 -11 38 8 61 54 67 75
88 82 84 5 -3 11 -1 15 5 3 5 24 10 46 10 32 0 39 -3 39 -20z m1180 -10 c0 -5
-5 -10 -11 -10 -5 0 -7 5 -4 10 3 6 8 10 11 10 2 0 4 -4 4 -10z m-1862 -139
c20 -6 32 -6 32 0 0 5 5 9 11 9 8 0 9 -12 4 -37 -4 -21 -7 -57 -6 -80 1 -24
-3 -43 -7 -43 -5 0 -12 -28 -16 -62 -3 -35 -12 -67 -19 -73 -8 -5 -16 -16 -18
-24 -8 -24 -176 -34 -224 -13 -50 21 -66 77 -45 153 7 27 23 45 60 70 38 26
50 40 50 60 0 22 6 28 43 36 56 14 95 15 135 4z m142 -41 c0 -5 -2 -10 -4 -10
-3 0 -8 5 -11 10 -3 6 -1 10 4 10 6 0 11 -4 11 -10z m640 -90 c0 -5 -4 -10
-10 -10 -5 0 -10 5 -10 10 0 6 5 10 10 10 6 0 10 -4 10 -10z m-1290 -30 c0 -5
-4 -10 -10 -10 -5 0 -10 5 -10 10 0 6 5 10 10 10 6 0 10 -4 10 -10z m622 -42
c-9 -9 -12 -7 -12 12 0 19 3 21 12 12 9 -9 9 -15 0 -24z m-655 -264 c-3 -3
-12 -4 -19 -1 -8 3 -5 6 6 6 11 1 17 -2 13 -5z"/>
<path d="M578 2623 c12 -2 32 -2 45 0 12 2 2 4 -23 4 -25 0 -35 -2 -22 -4z"/>
<path d="M10785 2440 c-13 -6 -15 -9 -5 -9 8 0 22 4 30 9 18 12 2 12 -25 0z"/>
<path d="M10868 2442 c-9 -4 45 -8 120 -10 75 -2 134 -1 132 1 -9 8 -235 16
-252 9z"/>
<path d="M10688 2433 c6 -2 18 -2 25 0 6 3 1 5 -13 5 -14 0 -19 -2 -12 -5z"/>
<path d="M9818 2143 c7 -3 16 -2 19 1 4 3 -2 6 -13 5 -11 0 -14 -3 -6 -6z"/>
<path d="M10120 1575 c0 -8 7 -15 15 -15 8 0 15 7 15 15 0 8 -7 15 -15 15 -8
0 -15 -7 -15 -15z"/>
<path d="M8240 1551 c0 -11 28 -41 39 -41 8 0 41 33 41 41 0 2 -18 5 -40 7
-22 1 -40 -2 -40 -7z"/>
</g>
</svg>
